<?xml version="1.0" standalone="no"?><!DOCTYPE svg PUBLIC "-//W3C//DTD SVG 1.1//EN" "http://www.w3.org/Graphics/SVG/1.1/DTD/svg11.dtd"><svg t="1753674557190" class="icon" viewBox="0 0 1024 1024" version="1.1" xmlns="http://www.w3.org/2000/svg" p-id="18141" xmlns:xlink="http://www.w3.org/1999/xlink" width="200" height="200"><path d="M513.396364 8.215273C234.589091 8.215273 8.610909 234.193455 8.610909 513.000727s225.978182 504.785455 504.785455 504.785455 504.808727-225.978182 504.808727-504.785455S792.203636 8.192 513.419636 8.192z m-91.531637 623.709091c-27.229091 0-49.105455-5.585455-76.381091-10.938182l-76.288 38.213818 21.806546-65.629091c-54.621091-38.190545-87.272727-87.412364-87.272727-147.316364 0-103.796364 98.210909-185.530182 218.135272-185.530181 107.287273 0 201.239273 65.303273 220.113455 153.204363a188.788364 188.788364 0 0 0-21.038546-1.326545c-103.586909 0-185.413818 77.358545-185.483636 172.683636 0 15.918545 2.513455 31.185455 6.749091 45.777455-6.679273 0.535273-13.498182 0.837818-20.340364 0.837818z m321.745455 76.427636l16.407273 54.551273-59.81091-32.837818c-21.829818 5.445818-43.752727 10.891636-65.489454 10.891636-103.796364 0-185.506909-70.842182-185.506909-158.277818 0-87.202909 81.687273-158.301091 185.506909-158.301091 98.048 0 185.344 71.051636 185.344 158.301091 0.023273 49.221818-32.628364 92.788364-76.450909 125.672727z" fill="#45C45D" p-id="18142"></path><path d="M503.621818 408.040727c16.523636 0 27.322182-10.938182 27.322182-27.275636 0-16.407273-10.798545-27.229091-27.298909-27.229091-16.337455 0-32.698182 10.775273-32.698182 27.229091 0 16.314182 16.430545 27.275636 32.698182 27.275636z m-152.622545-54.528c-16.384 0-32.884364 10.821818-32.884364 27.252364 0 16.337455 16.500364 27.275636 32.884364 27.275636 16.360727 0 27.229091-10.938182 27.229091-27.275636 0-16.453818-10.868364-27.229091-27.229091-27.229091z m223.581091 158.254546c-10.798545 0-21.806545 10.938182-21.806546 21.806545 0 11.008 10.984727 21.829818 21.806546 21.829818 16.546909 0 27.298909-10.798545 27.298909-21.829818 0-10.868364-10.752-21.806545-27.298909-21.806545z m120.017454 0c-10.798545 0-21.713455 10.938182-21.713454 21.806545 0 11.008 10.938182 21.829818 21.713454 21.829818 16.407273 0 27.275636-10.798545 27.275637-21.829818 0-10.868364-10.868364-21.806545-27.275637-21.806545z" fill="#51C332" p-id="18143"></path></svg>