<?xml version="1.0" standalone="no"?><!DOCTYPE svg PUBLIC "-//W3C//DTD SVG 1.1//EN" "http://www.w3.org/Graphics/SVG/1.1/DTD/svg11.dtd"><svg t="1753673582625" class="icon" viewBox="0 0 1024 1024" version="1.1" xmlns="http://www.w3.org/2000/svg" p-id="7607" xmlns:xlink="http://www.w3.org/1999/xlink" width="200" height="200"><path d="M432.1024 432.25088l17.3056-149.7856h67.15392c41.36448 0 74.89536 33.53088 74.89536 74.89024 0 41.36448-33.53088 74.89536-74.89536 74.89536H432.1024z" fill="#1842E3" p-id="7608"></path><path d="M219.42784 73.14432c-80.7936 0-146.28352 65.49504-146.28352 146.28352v585.14432c0 80.78848 65.49504 146.28352 146.28352 146.28352h585.14432c80.78848 0 146.28352-65.49504 146.28352-146.28352V219.42784c0-80.7936-65.49504-146.28352-146.28352-146.28352H219.42784z m130.688 116.33664h207.60576c27.904 0 64.83968 10.58304 95.1296 39.66464 31.68256 30.4128 51.15392 76.1856 51.15392 137.09824 0 45.45536-17.80224 83.15904-39.17312 110.85312 52.3776 37.41696 84.8896 94.96576 84.8896 157.3376 0 67.37408-31.9488 119.28576-69.58592 153.1648-35.68128 32.12288-82.4832 53.34528-122.41408 53.34528H420.57728l13.06112-108.71296h106.30656c52.4544 0 94.976-42.5216 94.976-94.97088 0-52.4544-42.5216-94.976-94.976-94.976h-125.0816l-19.54816 166.11328-16.83968 133.6064H261.83168L350.11584 189.48096z" fill="#1842E3" p-id="7609"></path></svg>