<svg width="100" height="106" viewBox="0 0 100 106" fill="none" xmlns="http://www.w3.org/2000/svg">
<g clip-path="url(#clip0)">
<path d="M52.519 105.66C23.5594 105.66 0 81.9609 0 52.8302C0 23.6994 23.5594 0 52.519 0C64.7468 0 76.5781 4.26121 85.8388 12.0015C88.2031 13.9788 89.7929 17.1794 89.7929 19.9638C89.7929 22.6138 88.7685 25.1042 86.907 26.9783C85.0454 28.8523 82.5686 29.8848 79.9357 29.8848C77.6837 29.8848 75.4349 29.0619 73.6046 27.5633C67.7702 22.7984 59.6933 19.8356 52.5221 19.8356C34.438 19.8356 19.727 34.6372 19.727 52.8333C19.727 71.0232 34.438 85.8217 52.5221 85.8217C69.2882 85.8217 79.614 73.7733 79.614 62.748H53.0968V43.4474H89.9772C95.1088 43.4474 99.3628 47.3207 99.7939 52.4641C99.9469 54.2913 100 55.671 100 56.9412C100 69.8531 96.5081 82.0173 87.466 91.1904C78.274 100.523 67.2611 105.66 52.519 105.66Z" fill="#00C01E"/>
<path d="M62.6917 53.0992C62.6917 58.4304 58.3971 62.748 53.0968 62.748C47.7996 62.748 43.5019 58.4273 43.5019 53.0992C43.5019 47.768 47.7965 43.4474 53.0968 43.4474C58.3971 43.4474 62.6917 47.768 62.6917 53.0992Z" fill="#0028AC"/>
</g>
<defs>
<clipPath id="clip0">
<rect width="100" height="105.66" fill="white"/>
</clipPath>
</defs>
</svg>
