<?xml version="1.0" standalone="no"?><!DOCTYPE svg PUBLIC "-//W3C//DTD SVG 1.1//EN" "http://www.w3.org/Graphics/SVG/1.1/DTD/svg11.dtd"><svg t="1753681658380" class="icon" viewBox="0 0 1024 1024" version="1.1" xmlns="http://www.w3.org/2000/svg" p-id="36231" xmlns:xlink="http://www.w3.org/1999/xlink" width="200" height="200"><path d="M348.895506 837.811614c30.308897-35.294151 75.03168-106.821703 75.031679-220.037537v-54.476539c45.084033-6.574755 85.616313-11.560008 111.770832-14.450011q131.422846-14.08876 263.712694-19.001764c31.067523-0.794751 57.366542 0 76.585056 1.228251a364.176392 364.176392 0 0 1-527.100261 306.7376z m-22.939392-258.29394c15.497636-2.962252 30.886898-5.671629 46.384534-8.128131 0.252875 18.676639 0.469625 37.208777 0.578 55.307416 0 79.041558-23.120017 159.419742-38.437028 203.492274A366.018768 366.018768 0 0 1 162.562619 615.317576c29.875397-7.369505 94.105694-22.614267 163.393495-35.799902z m28.502646-395.93029c5.165879 61.412545 13.546885 202.986524 16.978762 344.054752-84.785437 8.706131-175.314753 17.051012-221.843787 21.313766A364.862767 364.862767 0 0 1 354.567135 183.587384z m252.152684-23.445142l1.914627 337.841248c-24.601143 4.262753-49.166161 8.128131-73.839554 11.560008-26.371269 3.612503-66.000423 8.019756-110.759332 12.78826V163.754745a6.213505 6.213505 0 0 0-2.673251-4.515628 363.020391 363.020391 0 0 1 185.35751 0.903125z m264.796444 291.998589c-37.136527 6.68313-132.723347 23.914768-216.750159 38.328653 2.456502-53.573414 10.151132-232.175545 17.448388-305.726099a365.585268 365.585268 0 0 1 199.301771 267.397446zM102.41445 512.07225a409.621675 409.621675 0 1 0 409.5133-409.6578 409.58555 409.58555 0 0 0-409.5133 409.6578z" fill="#C29154" p-id="36232"></path></svg>