<?xml version="1.0" standalone="no"?><!DOCTYPE svg PUBLIC "-//W3C//DTD SVG 1.1//EN" "http://www.w3.org/Graphics/SVG/1.1/DTD/svg11.dtd"><svg t="1753675663903" class="icon" viewBox="0 0 1024 1024" version="1.1" xmlns="http://www.w3.org/2000/svg" p-id="25889" xmlns:xlink="http://www.w3.org/1999/xlink" width="200" height="200"><path d="M389.984 11.328A208.8 208.8 0 0 1 443.968 0c18.88 27.008 25.184 59.68 35.072 90.56 6.72 33.984 12.16 67.968 13.056 102.4 4.48 23.936 1.792 47.872 2.688 72.288 1.344 21.76-1.792 43.552-0.896 65.76 0.896 30.496-3.552 60.96-3.168 91.904-4.48 19.584-0.896 40.064-7.168 59.2-7.68-3.904-11.264-11.744-16.192-18.24a2057.216 2057.216 0 0 1-98.976-156.8c-29.248-56.64-60.288-115.456-62.976-179.904C303.168 76.224 340.48 27.424 389.984 11.328z m184.896-8.704c4.448-2.592 9.44 0.416 14.4 0.832 24.288 5.248 50.368 8.736 71.072 23.968 19.328 15.68 37.344 34.4 44.544 58.368 10.336 28.736 6.304 60.096 0 89.28-9.024 37.024-26.112 71.84-43.2 106.24-5.344 10.432-13.056 20.032-17.984 30.912-9.92 21.344-22.944 41.376-35.52 60.96-19.808 33.12-41.856 64.48-63.456 96.288-3.136 3.424-7.168 12.16-12.576 6.528a1696.992 1696.992 0 0 1-7.68-105.376c-4.928-44.864-2.24-90.176-2.656-135.456 3.136-30.08 3.552-60.128 7.2-89.728 7.2-35.264 12.16-71.008 23.36-105.376 8.128-11.776 9.472-29.184 22.528-37.44h-0.032zM199.296 115.84c4.96-2.176 7.2 3.904 10.368 6.528a1982.4 1982.4 0 0 1 223.968 347.552c4.928 10.048 11.232 20.064 12.16 31.36-11.264-2.56-20.704-8.256-31.04-13.056a1907.008 1907.008 0 0 1-168.256-93.216c-20.224-13.92-40.96-27.424-58.912-44-36-24.384-60.736-65.76-57.6-108.864 3.584-49.664 35.552-91.456 69.312-126.304z m613.568-0.448h7.2c16.192 20.48 35.104 39.648 46.784 63.168 12.576 21.344 18.88 45.76 20.64 70.112-1.344 27.008-10.368 54.88-28.8 75.776-12.16 10.464-21.568 23.104-34.176 32.224-67.04 51.392-142.592 91.488-218.624 129.792-11.232 5.664-22.048 13.504-34.624 14.848 2.24-15.264 11.712-27.456 17.984-41.408a1924.992 1924.992 0 0 1 179.488-286.144c13.92-19.584 30.144-38.336 44.096-58.368h0.032zM69.76 344.512c1.792-3.456 1.344-9.6 6.304-10.464 8.96 1.728 16.64 7.424 24.736 11.776 107.52 56.608 214.56 114.56 317.568 178.56 3.584 1.728 5.44 5.216 6.752 9.152a10801.6 10801.6 0 0 1-203.328 0.416c-40.96 0.448-80.064-17.824-108.8-45.28C88.16 462.528 69.216 429.44 66.976 393.28c0-16.16-1.792-32.704 2.656-48.8H69.76z m854.24-3.04c6.72-3.936 13.504-7.84 21.568-6.976 1.376 15.264 4.48 30.496 4.96 45.728-2.656 18.72-2.24 38.336-10.816 55.744-7.168 15.264-14.4 30.944-26.944 42.688-13.536 12.16-24.768 27.008-41.856 34.848-18.88 13.92-43.2 18.272-66.56 19.584-71.104 0.448-142.624 0.448-213.664 0 1.792-3.456 3.552-6.528 7.2-8.256 105.696-65.792 215.872-125.024 326.112-183.36zM221.76 561.856c38.24-3.936 76.928-0.448 115.136-4.8 27.456-0.864 54.88-2.176 81.888 0-7.2 11.328-20.256 16.544-30.592 23.936a648.096 648.096 0 0 1-91.328 52.704c-31.456 15.232-71.04 9.568-98.048-11.776-22.048-14.816-37.344-36.16-51.744-57.504 24.736-3.04 49.952-0.832 74.688-2.56z m375.584-4.8c27.008-1.728 54.4-0.864 81.888 0.416 36.864 3.936 74.688 0.448 111.584 4.32 26.08 2.176 52.16 0 78.24 3.072-8.96 18.24-22.912 33.952-38.208 47.904-23.36 23.52-59.392 35.296-92.224 28.352-28.8-8.736-53.984-26.144-79.648-40.512-13.92-8.288-26.976-17.408-40.928-26.144-7.648-5.184-15.744-10.016-20.704-17.408z" fill="#C71F1E" p-id="25890"></path><path d="M534.144 1020.544v-28.224c20.128 0 39.36-0.448 58.56 0.128 16.512 0.544 25.984-4.608 25.568-22.304-0.672-29.216-0.672-58.496-0.64-87.712 0-15.36-8.48-20.896-23.104-20.832-26.624 0.096-53.312-0.768-79.872 0.544-6.496 0.32-15.52 6.208-18.464 11.904-15.296 29.888-27.68 61.248-43.648 90.752-16.128 29.856-40.512 51.616-76.192 59.2-6.016-18.176-1.12-28.544 15.68-38.272a99.2 99.2 0 0 0 35.04-35.68c15.424-27.264 26.976-56.576 41.6-88.224h-93.44v-28.64c29.024 0 56.928-0.8 84.736 0.32 15.712 0.64 26.24-2.88 30.24-18.848 1.344-5.28 5.856-9.92 6.944-15.2 4.416-21.536 18.336-25.824 40.256-20.352l-22.4 53.984c28.8 0 55.136-0.128 81.44 0.032 37.952 0.224 52.544 14.08 52.768 50.24 0.16 31.36 0.32 62.72-0.064 94.08-0.384 28.704-15.808 43.392-45.696 43.84-19.424 0.32-38.848 0.032-58.304-0.032-2.848-0.032-5.696-0.352-11.008-0.704zM686.528 855.2h63.84l185.6-0.128c26.24-0.032 26.24-0.064 21.824 28.16h-57.28c-45.344 0-90.656 0.32-136-0.192-11.68-0.128-18.24 2.08-21.088 14.624-5.344 23.712-12.704 47.04-19.328 70.496-4.8 16.864 1.472 25.28 19.84 25.216 53.216-0.224 106.432-0.736 159.68-0.256 19.84 0.16 23.168-8.768 18.88-24.96-4.672-17.376-8.672-34.912-12.992-52.384 29.12-6.816 29.76-6.4 35.488 19.072 3.52 15.616 8.224 31.104 10.528 46.88 3.296 22.784-9.6 38.72-33.28 39.04-65.472 0.832-130.944 0.992-196.416 0-26.08-0.384-39.136-18.56-33.504-44.96 6.304-29.856 14.72-59.328 22.688-90.752l-28.48-3.52v-26.336zM211.84 914.272a37.504 37.504 0 0 1-17.536-22.496c-2.592-9.056 3.2-27.392 0.448-36.928l-53.92 9.984v-29.824l59.2-12.384v-45.504h30.176v40.192c26.656-8.224 54.528-0.96 74.848-23.904 4.64-5.248 18.304-3.072 28.096-4.352-0.96 28.8-8.544 38.496-34.336 44.544-22.176 5.216-44.608 9.696-67.168 14.528-0.416 4.512-0.96 7.904-1.056 11.296-0.704 27.936-0.672 27.968 27.616 28 25.056 0.064 50.08 0 76.832 0v26.4H211.424l0.416 0.448z" fill="#333333" p-id="25891"></path><path d="M211.424 913.824l6.464 28.352h117.248l1.76 28.704H216.128v50.144h-30.816v-49.6H64v-27.296h118.208l4.48-23.744c9.152-2.144 17.216-4.064 25.216-6.016a9.568 9.568 0 0 0-0.48-0.544zM690.784 803.36v-24.224h264.256l1.12 24.224h-265.376zM122.272 923.264H92.672V855.04l-28.288 2.624v-27.776c23.392-5.344 36.992-19.712 41.632-42.56 4.16-20.16 20.16-8.832 38.752-13.344-29.76 49.472-20.736 99.264-22.496 149.248zM503.616 938.368v-25.376h91.776v25.376h-91.776zM392.736 813.056v-25.6h69.76v25.6h-69.76z" fill="#333333" p-id="25892"></path></svg>