<svg height="272" viewBox="0 0 272 272" width="272" xmlns="http://www.w3.org/2000/svg" xmlns:xlink="http://www.w3.org/1999/xlink"><linearGradient id="a" x1="82.793667%" x2="12.527447%" y1="87.436093%" y2="7.221894%"><stop offset="0" stop-color="#e62828"/><stop offset="1" stop-color="#ff593b"/></linearGradient><g fill="none" fill-rule="evenodd"><g transform="translate(0 2)"><path d="m135.407893 0c-74.7809371 0-135.407893 60.2163344-135.407893 134.501685 0 74.27861 60.6269559 134.498315 135.407893 134.498315 74.787724 0 135.411287-60.219705 135.411287-134.498315 0-74.2853506-60.623563-134.501685-135.411287-134.501685z" fill="url(#a)"/><path d="m68.7606596 49.9126505c3.318771-1.2673575 11.0489963-.1179721 16.8585423 3.78859 6.0606595 4.0683524 7.4282104 9.8961745 3.9533418 16.8497876l-15.8574816 41.6610069c3.7056216 3.171765 6.1285281 5.925571 7.0142124 8.541181 2.7820667 8.230678 10.5804048 73.065317 13.1192961 95.749317l.172266 1.547268c.3804361 3.436807.6079802 5.637449.6350598 6.14473.5022271 9.481586-6.6137881 8.935544-8.897564 7.590662-2.3787919-1.398812-8.6973518-8.780495-10.3804913-12.43426-1.7035001-3.700954-2.5348896-7.688411-2.467021-11.8444-.7261933-14.308331-1.4693537-28.057138-2.2057272-40.76779-.6786853-11.702833-2.6706265-24.248324-5.9283159-37.343228 0 0-5.2599863 7.447363-10.9524401 14.900067l-.5107997.667223c-.7675483 1.000261-1.5402999 1.996611-2.3065537 2.97101l-.5097447.646149c-1.6950844 2.141673-3.3452398 4.155153-4.8220589 5.842491-5.4498428 6.235669-11.1847334 8.999587-14.014851 8.601852-6.7291646-.943776 16.4682982-29.530103 26.024187-58.551242 5.5652192-16.9138296 9.1792183-32.9580362 7.7539793-48.7595574-.095016-1.8235117.0033934-4.5334996 3.3221644-5.8008571zm25.1435928 89.0534365c4.49629-1.786435 8.5785816-1.732505 12.7083816-.252797 4.350373 1.560602 7.054934 5.160437 8.039027 10.695014l7.401063 51.021251s92.386034-22.579861 96.933225-24.009009c3.998999-1.252956 6.06659-1.209602 7.888555-1.086895l.374007.026121c.123869.008818.247123.017614.370315.02599 2.039449.131455 4.62524.866252 7.940618 2.214505 4.74401 2.268435 7.255145 5.268297 7.553767 8.952398.220573 2.774029-2.076777 6.714298-7.808274 7.256969-5.731497.542672-48.797472 4.644731-77.740005 13.047716-28.942534 8.402984-41.07064 14.261142-43.829496 13.701617-2.215907-.448294-4.469142-1.085343-6.634148-2.544827-4.5947-3.09761-4.72365-6.768228-4.021211-9.302943 3.25769-7.199669-3.06087-48.759557-3.06087-48.759557-.6854723-3.063905-1.9953349-5.794116-3.8752931-8.05581-2.0869573-2.501009-4.703289-6.306452-5.1240739-7.580551-.3732769-1.129161.2205727-4.290814 2.8844124-5.349192zm35.0982096-101.93262c.807635-4.685178 10.061509-7.3412357 21.911354-.8426579 8.086535 4.7627025 6.216757 8.5951107 4.63542 15.3464859-.60403 2.5684213-1.370944 6.9839488-2.110711 12.6230155 10.478901-3.9604922 14.629061-6.8760886 20.374132-9.0737404 7.472325-2.8616663 13.689082-2.8684075 17.85621-1.5943088 4.167127 1.2707282 6.888655 9.0400341 2.959068 13.0814215-2.064527 2.1233968-16.790207 6.6663469-32.868873 10.9884722l-1.164512.3120212c-.194425.0519271-.389007.1038129-.583726.1556528l-1.169803.3104516c-.390376.1032757-.781143.2063307-1.172142.3091282l-1.173534.3075831-1.173975.3058163c-.391293.1016197-.782502.202908-1.173467.303828l-1.172011.3016178c-.390322.1001464-.780243.1998874-1.169605.2991862-.400424 5.3087448-.692259 11.0118536-.804242 16.8700114l.921746-.3777805c.153605-.0628684.307183-.1256808.460704-.1884244l.920223-.3755341c9.037781-3.6826236 17.683124-7.0368094 20.148236-7.4376513 6.607001-1.0786021 15.406156 1.5943088 18.558649 5.6087311 2.847085 3.6267996-.071262 14.5375346-.285048 18.6025156-.213786 4.061612 1.81209 18.241859 3.861719 27.662774.697915 3.216707 1.407518 7.314271 2.038318 11.472132l.14413.960204c1.188733 8.004389 2.060292 15.998337 1.971106 18.146035-.152704 3.589722-2.514529 7.594033-6.573067 8.48725-3.610605.788728-10.923439-5.635696-11.086324-5.585136l-37.463427 9.852356c-1.353977 5.372787-3.987276 7.654704-6.810607 7.59521-2.819937-.065219-7.295867-5.579572-8.100109-9.135589-.800848-3.556016-9.338709-55.945744-10.736801-60.40509-1.394698-4.459345-3.620786-7.078326-4.408061-8.48725-.984093-1.766211-.525981-4.681807.447933-6.006466.919618-1.243763 2.388972-2.005525 4.367339-2.265064 3.339132-.4247 6.505199-.016853 9.426939 1.223539 0 0 2.002121-.862882 5.147828-2.204393.038372-.403374.084922-.899895.137888-1.478858l.046929-.516194c.346997-3.8405073.917067-10.6765135 1.301503-18.0264999-4.842419 1.1190497-9.097776 2.0392321-12.284203 2.6425752-17.622063 3.3470372-26.2074321-.5797487-26.1433174-3.3942261.132704-5.6188429 17.6393904-7.6917814 38.8211584-13.570163-.013574-2.9257083-.101803-5.6727731-.308802-8.0153621-1.384518-15.6599546-7.485899-19.178894-6.522165-24.7876251zm35.834582 68.62269c-1.919491-.095558-8.552961 1.885893-15.269132 4.094396l-.895573.29565c-.298416.09889-.59659.198066-.894113.297366l-.890215.298109c-7.247525 2.434931-13.860946 4.846611-13.860946 4.846611s.763521 4.05487 1.896926 10.19279c2.925133-1.075231 8.897564-3.36389 12.270629-4.611024 3.899047-1.439259 9.097777-2.126868 12.100959-1.890924s5.680596 1.661721 6.847934 4.152618c1.167339 2.490897-1.59491 4.58743-3.807424 5.254815-3.875293 1.12242-21.351439 6.29971-25.52196 7.428872.7228 3.987457 1.493108 8.264789 2.256629 12.599421 6.230331-2.157204 18.327896-6.549137 23.302659-5.844675 5.857054.832546 7.753979 5.093024 7.750586 6.276116-.006787 1.257246-1.652599 2.642575-3.953342 3.485233-1.574654.533908-6.723172 2.131209-12.064492 3.778753l-.972521.299882c-4.865701 1.49992-9.721393 2.990617-12.026834 3.710895.777094 4.570576 1.489714 8.901838 2.06999 12.656722 4.445388-1.60105 25.549107-9.275979 29.224188-10.199532 4.146767-1.044896 6.08102-.293245 6.08102-.293245-.342058-4.57543-1.754413-13.784418-3.328461-23.164406l-.225866-1.34068c-.037795-.22348-.075657-.446936-.113574-.670309l-.228062-1.338749c-2.018632-11.808221-4.1225-23.04277-4.4858-24.73631-.682079-3.191988-1.757795-5.403122-5.263205-5.578395z" fill="#fff"/></g><g fill="#333" transform="translate(325.783629 32.750273)"><path d="m626.633746 21.2501472c1.197879 0 2.324497.4718885 3.172853 1.3280289.861931.8729936 1.323437 2.0257496 1.303076 3.2526595-.380064 22.721428-1.479534 38.6004737-3.271263 47.2495145h41.902029c2.467021 0 4.47593 2.0156377 4.47593 4.4964226v2.0661972c0 2.4807849-2.008909 4.4964226-4.47593 4.4964226h-44.569262c-.234146.6235669-.519194 1.2943226-.848357 2.0055259 14.605308 7.5266204 29.556744 15.4442346 44.453886 23.5404916 1.150372.626937 1.971581 1.722393 2.249842 3.009974.278261 1.290952-.013574 2.635834-.811029 3.6841l-2.443267 3.222324c-1.408272 1.853848-3.949948 2.329107-5.907955 1.098826-9.532135-5.959277-24.279966-14.14317-43.856643-24.3258486-8.103502 10.2804266-26.197252 19.6946006-53.806169 27.9930956-.420785.124714-.85175.188756-1.282715.188756-1.401485 0-2.762249-.664015-3.627573-1.836995-.916225-1.240392-1.740828-2.372924-2.477201-3.394226-.865324-1.206686-1.07911-2.760547-.566702-4.159359.50562-1.38533 1.655992-2.430226 3.077837-2.800995 30.456002-7.910873 48.149327-17.4025712 52.642224-28.2256695h-56.266403c-2.467021 0-4.475929-2.0156377-4.475929-4.4964226v-2.0661972c0-2.4807849 2.008908-4.4964226 4.475929-4.4964226h59.534273c2.131071-9.8489857 3.264476-25.7651083 3.369672-47.3371509.01018-2.4774142 2.019089-4.493052 4.472536-4.493052zm-597.9756856-16.72642246c.7058326-2.34933026 3.1796405-3.71106545 5.507531-3.04705101l4.2248158 1.21679802c1.1741256.33706317 2.1751864 1.15612666 2.745282 2.24484068.573489 1.09545528.6718984 2.38640721.2680807 3.54927512-2.7995768 8.09625725-6.0267253 16.16217875-9.6000033 23.97867355v87.0870099c0 2.480785-2.0089084 4.496423-4.4793228 4.496423h-3.5936386c-2.4704144 0-4.4793228-2.015638-4.4793228-4.496423v-62.75442c-2.8674453 5.005388-5.8875948 9.6366359-9.0095471 13.8094778-.90943824 1.2134274-2.34825103 1.8740712-3.86511263 1.7796936-1.51007474-.0977484-2.85387159-.9471475-3.59024512-2.2684351-.61421017-1.0920847-1.29289545-2.1841694-2.0190887-3.2425477-1.06214246-1.5336374-1.01802792-3.6301703.10858965-5.2076259 12.216335-17.0924731 21.5652247-36.318556 27.7819819-57.14568896zm415.9129296 28.99046576c1.136798-.3134688 2.327891-.165161 3.359493.4179583l2.249841 1.2774694c1.06893.6033431 1.825664 1.5976794 2.131072 2.7976243.302015 1.1965742.101803 2.4774142-.549735 3.5189394-3.325558 5.3121155-6.413576 10.2635734-9.260661 14.8577443v63.1690078c0 2.480785-2.008908 4.496423-4.479322 4.496423h-2.565431c-2.470414 0-4.479323-2.015638-4.479323-4.496423v-47.8730814c-2.752068 3.340296-5.602547 6.6569976-8.500533 9.8928039-.994274 1.1123085-2.467021 1.6549802-3.953342 1.4358891-1.496501-.2157204-2.769035-1.1628679-3.410393-2.534715-.481867-1.0213014-.973913-2.0594559-1.489714-3.1178343-.824603-1.6987983-.498834-3.751513.811029-5.1065069 10.709653-11.0624131 19.929593-23.3753305 27.405311-36.5983185.600637-1.0583783 1.567763-1.8167704 2.731708-2.1369804zm-144.495489-29.07843925c.661718-2.31562394 3.003183-3.69758292 5.317499-3.15154059l2.04963.48874159c1.21824.28650369 2.270202 1.08197276 2.881019 2.18416931.62439 1.11567907.74316 2.44707857.332556 3.6537647-3.39682 10.01077604-6.959918 19.41146764-10.584097 27.94927764v83.4736931c0 2.480785-2.008909 4.496422-4.479323 4.496422h-2.56543c-2.470415 0-4.479323-2.015637-4.479323-4.496422v-60.9174261c-1.686533 3.1245755-3.508803 6.2154448-5.443056 9.2287894-.868717 1.3482527-2.351645 2.1201274-3.922801 2.0527147-1.615271-.0606714-3.037117-.9538887-3.807424-2.3864072-.332556-.6201962-.671899-1.2302805-1.021422-1.8336236-.868717-1.5033017-.814422-3.3234428.145918-4.7525906 11.079537-16.5329483 19.685266-35.3714086 25.576254-55.98956235zm-215.1357673-3.91802223c2.467021 0 4.4759295 2.01563773 4.4759295 4.49642262v40.59588756h31.5351118c2.470414 0 4.479322 2.0156377 4.479322 4.4964226v3.1043518c0 2.4774142-2.008908 4.4964226-4.479322 4.4964226h-31.5351118v61.3286428c0 2.477414-2.0089085 4.493052-4.4759295 4.493052h-4.1094393c-2.4704144 0-4.4793228-2.015638-4.4793228-4.493052v-61.3286428h-33.0723336c-2.4704145 0-4.4759295-2.0190084-4.4759295-4.4964226v-3.1043518c0-2.4807849 2.005515-4.4964226 4.4759295-4.4964226h33.0723336v-40.59588756c0-2.48078489 2.0089084-4.49642262 4.4793228-4.49642262zm446.7035243 60.64069698c2.467021 0 4.475929 2.0190083 4.475929 4.4964226v1.5504905c0 2.4774143-2.008908 4.493052-4.475929 4.493052h-10.953981v8.1198517h13.526198c2.467021 0 4.475929 2.0156377 4.475929 4.4964226v1.5504905c0 2.4774143-2.008908 4.493052-4.475929 4.493052h-13.526198v15.9801651c.173065 5.315486-1.126617 9.410803-3.865112 12.134274-2.697774 2.679652-6.797034 4.038016-12.199368 4.038016-.34613 0-.695653-.006741-1.048569-.016853h-14.652815c-2.107318 0-3.953342-1.510043-4.384307-3.589723-.179852-.862881-.390244-1.789805-.607423-2.736953-.325769-1.385329.01018-2.811106.919618-3.906562.892471-1.075231 2.276989-1.675204 3.597032-1.611162 4.564159.165161 10.356737.26628 13.105413.26628 2.779216.144938 4.767764-.384252 5.98261-1.584197 1.235208-1.223539 1.781549-3.25603 1.632239-6.040171l-.003394-12.9331141h-36.978167c3.295017 3.6200584 6.471264 7.25697 9.406578 10.8399511.794061.970742 1.140191 2.24147.956946 3.488604-.186638 1.253875-.899258 2.379666-1.95122 3.087499l-2.181973 1.469595c-.763521.512336-1.632238.758392-2.494169.758392-1.262354 0-2.511135-.53256-3.383246-1.557232-2.80297-3.282995-5.680596-6.650256-8.63627-10.0916708-.797455-.9302943-1.187699-2.1673162-1.068929-3.3942261.122163-1.2269099.716013-2.3223652 1.676352-3.0841279l1.913893-1.5167843h-12.450482c-2.470414 0-4.479323-2.0156377-4.479323-4.493052v-1.5504905c0-2.4807849 2.008909-4.4964226 4.479323-4.4964226h55.190687v-8.1198517h-50.046252c-2.470415 0-4.479323-2.0156377-4.479323-4.493052v-1.5504905c0-2.4774143 2.008908-4.4964226 4.479323-4.4964226zm-312.757858-35.0788377c1.24878-2.0493441 3.865112-2.7470648 5.955463-1.5875675l4.302865 2.3830365c1.089289.6033431 1.890138 1.6516095 2.185366 2.8717782.305409 1.2269099.078049 2.534715-.620997 3.5829814-18.012307 27.1335848-37.629705 51.115629-58.339786 71.3293071 2.870838-.067413 6.556099-.229203 11.008275-.47863 21.874026-.657273 40.052611-1.641497 54.09461-2.925708-5.531285-7.8805369-11.55801-16.1857733-17.930865-24.7067301-1.486321-1.9886726-1.092683-4.8166326.875504-6.2997105l2.92174-2.2077637c1.947827-1.4695954 4.74401-1.0920847 6.240511.8426579 10.668933 13.7724009 21.100325 27.5279486 31.00913 40.8891324 1.459174 1.968449 1.08929 4.698661-.85175 6.218815l-3.878686 3.04031c-.794062.623567-1.771368.95726-2.765642.95726-.23754 0-.478474-.020224-.71262-.057301-1.22842-.202238-2.32789-.916812-3.013363-1.961708-.62439-.957259-1.316649-2.042603-2.076777-3.266142-1.041781-1.307805-1.784942-2.318994-2.249841-3.067275-17.028214.697721-42.044553 2.258324-74.37712 4.634619-5.062992.53593-9.36925 1.193204-12.76607 1.951596-1.988548.444923-4.034784-.535931-4.954402-2.383037l-2.40594-4.850339c-1.08929-2.194281-.206999-4.877304 1.964794-5.986242 3.89226-1.981931 7.628423-4.762702 11.103291-8.2647885 21.972436-22.8056937 40.5752-46.5821294 55.28231-70.6585512zm134.837458-26.0795883c2.467021 0 4.475929 2.01563773 4.475929 4.49642262v7.94120818h34.616343c2.470414 0 4.479323 2.0190083 4.479323 4.4964226v2.0695678c0 2.4774143-2.008909 4.493052-4.479323 4.493052h-34.616343v9.1546356h25.355682c2.470415 0 4.479323 2.0190083 4.479323 4.4964226v72.2124126h7.353555c2.470414 0 4.479323 2.019008 4.479323 4.496422v1.550491c0 2.480785-2.008909 4.496423-4.479323 4.496423h-86.413603c-2.470414 0-4.479323-2.015638-4.479323-4.496423v-1.550491c0-2.477414 2.008909-4.496422 4.479323-4.496422h7.869356v-72.2124126c0-2.4774143 2.008908-4.4964226 4.475929-4.4964226h25.359076v-9.1546356h-32.047519c-2.467021 0-4.47593-2.0156377-4.47593-4.493052v-2.0695678c0-2.4774143 2.008909-4.4964226 4.47593-4.4964226h32.047519v-7.94120818c0-2.48078489 2.008908-4.49642262 4.475929-4.49642262zm22.790251 101.240292h-48.149327v8.119852h48.149327zm0-19.6912299h-48.149327v9.1546356h48.149327zm-183.254187-78.89873443c1.19788-1.99204331 3.668294-2.74369417 5.748464-1.75609909l3.647934 1.74261656c1.146978.54604233 2.012302 1.56734372 2.375398 2.79762427.363097 1.23702181.1838 2.57179195-.49544 3.65713534-16.65833 26.75944465-35.491847 48.49327755-55.977962 64.59478495-.807635.6336787-1.771368.9437768-2.735101.9437768-1.225027 0-2.446661-.5022241-3.322165-1.4763366-.807635-.8965881-1.659385-1.8167705-2.55525-2.7605474-.86193-.9066999-1.309862-2.1470923-1.21824-3.4043379.088229-1.2606163.709226-2.4369667 1.700107-3.2223239 20.418246-16.1790319 38.193014-36.7432556 52.832255-61.11629303zm183.254187 59.71984033h-48.149327v9.1546356h48.149327zm188.5649-18.0908542c1.387911-1.8100292 3.905834-2.2920295 5.857054-1.1224203 10.295656 6.1682559 18.528108 11.4230707 24.466604 15.6127658 1.011241.7112033 1.662779 1.7796935 1.839237 3.0066034.179852 1.22691-.159491 2.4875262-.933192 3.4616387l-1.998728 2.5178619c-.882291 1.1089378-2.185367 1.6954277-3.505409 1.6954277-.895865 0-1.798516-.2696505-2.579005-.8224341-6.830967-4.8570802-14.673175-10.3613217-23.309445-16.3576754-1.004455-.6977208-1.69332-1.7931761-1.883352-3.0066034-.196819-1.2302806.111983-2.4504493.86193-3.4346737zm-42.179272-39.09528232c2.467021 0 4.475929 2.01563772 4.475929 4.49305198v39.38583084c0 2.4807849-2.008908 4.4964226-4.475929 4.4964226h-57.094399c-2.467021 0-4.475929-2.0156377-4.475929-4.4964226v-39.38583084c0-2.47741426 2.008908-4.49305198 4.475929-4.49305198zm-146.385628 37.49153582h-48.149327v9.6737128h48.149327zm203.016146-17.8491799c1.394698-1.6617214 3.770096-2.0965329 5.656842-1.0213014 7.974552 4.5402409 15.742105 9.5051813 23.085479 14.7498841 1.004454.7179446 1.652599 1.7898054 1.825664 3.020086.173064 1.2302805-.166278 2.4908968-.939979 3.4616387l-1.947827 2.4538198c-.885685 1.1123085-2.17858 1.6954277-3.491836 1.6954277-.923012 0-1.852811-.2865037-2.650266-.8797348-6.634149-4.914381-14.004671-10.0040348-21.918141-15.1341361-1.085896-.704462-1.818877-1.8437355-2.015695-3.1279462-.190032-1.2740988.173064-2.5717919 1.00106-3.5526458zm85.733899-17.57009159c2.470415 0 4.479323 2.01563773 4.479323 4.49642259 0 3.0706455-.671898 6.1749972-1.937646 8.9793627-3.956735 8.7737542-7.489292 15.922864-10.506048 21.2450913-.811029 1.4358891-2.327891 2.251582-3.89226 2.251582-.665112 0-1.33701-.1449372-1.968188-.4550353-1.136798-.549413-2.134465-1.0213014-2.999789-1.408924-1.140191-.512336-2.015695-1.4797073-2.409332-2.6560578-.393638-1.1830917-.271474-2.4908968.339342-3.586352 2.731709-4.9042691 5.795973-10.8905109 9.135104-17.807047h-94.656236c-2.467021 0-4.475929-2.0156378-4.475929-4.4964227v-2.0661972c0-2.48078486 2.008908-4.49642259 4.475929-4.49642259zm-149.40917 27.12751759h-43.004893v9.1546356h43.004893zm-74.518286-31.68730808c1.248781-1.99878457 3.844752-2.70998785 5.897775-1.6077913l2.721528 1.44937161c1.123224.59997244 1.944433 1.65160951 2.256628 2.88863132.308802 1.22690992.084836 2.52797374-.610816 3.56949892-7.580915 11.31858103-17.12323 22.41807113-28.358865 32.99174253-.827996.778616-1.900319 1.1999449-3.020149 1.1999449-.234147 0-.468293-.0202238-.70244-.0573007-1.391304-.2157204-2.579004-1.0482665-3.254295-2.278547-.502228-.9100706-.973914-1.7257634-1.421846-2.4504492-1.204666-1.9482251-.770308-4.4256394 1.028208-5.8851229 9.196186-7.4794316 17.764587-17.5104314 25.464272-29.81997818zm74.518286 12.50841408h-43.004893v9.1546355h43.004893z"/><path d="m58.8945075 166.80919v30.6323l7.6895042-.613455.206999 3.879597-7.8965032.819064v13.887002h-4.1535539v-13.684764l-18.9081718 1.840364-.4139981-3.879597 19.3221699-1.840364v-31.040147zm596.3207115 2.042602.620997 3.67736c-4.570945.407846-9.277628.680867-14.126834.815692v8.578258h16.207004v3.879597h-16.207004v8.574887h12.881446v21.036112h-4.363946v-3.063904h-21.191948v3.063904h-4.153554v-21.036112h12.671055v-8.574887h-15.789613v-3.879597h15.789613v-8.372649c-4.292685.134825-8.7245.340434-13.295445.610084-.139131-.542671-.278261-1.290952-.417392-2.24484-.27826-.680868-.413998-1.156127-.413998-1.429148h2.28717c12.881446-.542672 22.712203-1.088714 29.502449-1.634757zm-619.3824372-.202237.8313894 3.673988c-.8313894.138196-2.1480389.340434-3.9465549.613455-1.6627789.134825-2.9115598.273021-3.7395558.407846v8.167041h7.4791117v3.677359h-7.4791117v5.9222l1.4523865-1.429148c.6922589.680868 1.9376464 1.702169 3.7395558 3.063904 1.5236485 1.223539 2.562037 2.110016 3.1185589 2.652687l-2.9115599 2.858296c-.6922589-.815693-2.4907749-2.517862-5.3989413-5.103136v22.259651h-3.9499484v-22.667498c-1.6593855 4.766073-4.0178168 9.326538-7.0617203 13.681394l-1.6661723-4.493052c3.4612949-4.627877 6.3015928-10.209643 8.5208936-16.745298h-7.8965032v-3.677359h8.1035022v-7.961432l-6.8547213.610084c-.1425239-1.223539-.3495229-2.517862-.6243904-3.879597 5.6772023-.134825 11.7717961-.677497 18.2837814-1.631385zm169.6343312-2.043614v14.08924h13.505837v27.568396c.135737 4.085206-2.012302 6.195221-6.444117 6.333417h-6.440723c-.278261-1.092085-.620997-2.383037-1.038389-3.879597h6.026726c2.629905.131455 3.875293-.889847 3.739556-3.063904v-3.471751h-22.854727v11.230945h-4.156947v-34.717506h13.505837v-14.08924zm264.827407 40.43376 2.076777 2.656058c-6.233724 2.312253-12.050057 4.21666-17.452392 5.716591-.139131-.138196-.278261-.407847-.417392-.815693-.278261-.546042-.827996-1.361735-1.659385-2.450449 7.89311-2.042603 13.712836-3.744772 17.452392-5.106507zm12.257056 0c.692259.138196 1.730647.407846 3.118559.815693 6.230331 1.499931 11.147406 2.861666 14.751224 4.085205l-1.662779 3.471751c-6.233724-2.177428-12.121319-4.085206-17.659391-5.716591zm-349.22769-20.625232v4.085205l-11.42906 6.737893v1.021301h21.609339v3.879597h-21.609339v6.737893c.13913 4.220031-2.008909 6.262634-6.440723 6.127808-1.94104.134826-4.435209.205609-7.479112.205609 0-.411217-.139131-1.092085-.417392-2.042603-.13913-1.092085-.278261-1.907777-.413998-2.450449 2.076777.134825 4.292685.202238 6.647723.202238 2.629905.134825 3.878686-.953889 3.739555-3.266142v-5.514354h-23.6861157v-3.879597h23.6861157v-2.24484l9.973281-5.719962h-24.307114v-3.879597zm274.741302-19.197433c0 2.861666-.071262 5.854787-.210392 8.986104 1.523648 17.153145 6.858114 28.589698 16.000005 34.30966-.278261.407846-.763521 1.085343-1.45578 2.039232-.692259.819063-1.245387 1.429148-1.659385 1.840365-7.760767-5.854788-12.538711-14.56787-14.337227-26.139249-1.387911 11.163532-6.440723 20.149636-15.168616 26.954942-.13913-.273022-.413998-.613455-.831389-1.021302-.83139-1.092085-1.591517-1.907777-2.283776-2.450449 10.248147-7.213152 15.375615-18.174446 15.375615-32.877141.135737-2.858296.206999-6.741263.206999-11.642162zm-229.609749 27.772994 3.949948 1.22691c-1.527042 4.627877-3.325558 10.893881-5.405728 18.7879l-4.153554-1.226909c2.076777-6.259263 3.946555-12.521897 5.609334-18.787901zm436.65966.206619c.553129.134826 1.245388.340434 2.076777.610085.967127.411217 1.662779.684238 2.076777.819063-.692259 2.177428-1.798516 5.581766-3.322164 10.209644-.554826 1.769581-1.057053 3.334397-1.507106 4.695289l-.263774.792072c-.343361 1.023485-.653384 1.916568-.930288 2.679679l-4.363946-1.429148c2.629905-6.805305 4.706682-12.929743 6.233724-18.376684zm-338.755576 3.943639c-.278261 1.769582-.620997 3.404338-1.038388 4.900899 2.355037.680867 5.748464 1.702169 10.180279 3.063904l1.130194.339318c4.436953 1.333114 7.868128 2.376374 10.298866 3.132433l-1.869778 3.673988c-1.662779-.546042-4.017817-1.361735-7.065114-2.450449-6.233724-2.177428-11.011669-3.741401-14.333833-4.69529-2.497562 3.400967-9.491414 5.9222-20.988342 7.553586-.413998-1.22354-1.038389-2.517862-1.866385-3.879597 8.310501-.953889 13.84518-2.177429 16.621003-3.673989 2.908166-1.49656 4.428421-4.152618 4.570945-7.964803zm281.616045-32.738271v10.823099h19.115171v3.879597h-19.115171v11.436553h17.455785v4.085205h-17.455785v12.660093h21.816338v3.47175h-49.866401v-3.47175h23.686116v-12.660093h-18.283781v-4.085205h18.283781v-11.436553h-14.126834c-1.662779 3.266142-3.671687 6.400829-6.026725 9.39395-.413998-.407846-1.45578-1.156127-3.115165-2.244841-.281655-.134825-.488654-.273021-.624391-.411217 4.292684-5.035723 7.825241-11.298357 10.597671-18.78453l4.360553.815693c-.967127 2.588645-2.008909 5.039094-3.115166 7.351348h12.050057v-10.823099zm-173.806889 16.744624v20.217049c1.523649-1.223539 4.085686-3.471751 7.689505-6.737893.135737-.134825.274867-.273021.413998-.407846.278261 1.49656.62439 2.858295 1.038388 4.081835-.967126.819063-2.490775 2.180798-4.570945 4.085205-2.215908 1.907778-3.807425 3.336926-4.777945 4.287444-1.245387.819063-2.148039 1.634756-2.701167 2.450449l-2.908166-2.858296c1.106257-1.088714 1.662778-2.585274 1.662778-4.493052v-16.745298h-6.440723v-3.879597zm266.058203 14.702696h-21.191948v11.230944h21.191948zm-380.308082-32.199645v3.879597h8.934891v-3.879597h3.949949v3.879597h12.257056v10.415252h-12.257056v4.493052h14.333833c0 .546043-.071262 1.429148-.206999 2.652687v1.840365c-.139131 2.315624-1.594911 3.539163-4.363947 3.673989h-4.984943c0-.134826-.071262-.337063-.206999-.613455-.281654-.815693-.488653-1.429148-.62439-1.836995.549735 0 1.313256.070784 2.283776.205609h2.08017c1.520255.134825 2.212514-.475259 2.076777-1.836994.135737-.411217.206999-.819064.206999-1.22691h-10.594277v4.69529h-3.949949v-4.69529h-10.387278c-.831389 2.588645-2.56543 4.69529-5.195336 6.330046h27.632671v12.252246h-3.946554v-9.188342h-25.762894v9.801797h-4.156947v-10.209643c-.831389.407846-2.355038.953889-4.570945 1.631386-.83139.276391-1.527042.478629-2.076777.613454-.413998-1.223539-.97052-2.379665-1.662779-3.47175 8.724499-1.904407 13.851966-4.493052 15.375615-7.759194h-11.843058l1.452386-10.415252h12.053451v-4.287443h-14.130228v-3.063905h14.337227v-3.879597zm208.89322.955912v3.879597h21.816338v3.063904h-21.816338v3.879597h15.793007v25.731402h7.06172v3.063904h-49.866401v-3.063904h7.065114v-25.731402h15.789613v-3.879597h-21.812945v-3.063904h21.812945v-3.879597zm11.636059 32.877141h-27.425672v3.677359h27.425672zm-275.632076-5.308408h-22.854727v6.330046h22.854727zm275.632076-1.227247h-27.425672v3.677359h27.425672zm-449.8373529-8.779147c1.384518 1.092084 3.3255579 2.656057 5.8197263 4.69529 1.106257.819063 2.005515 1.499931 2.7011674 2.042602l-2.7011674 3.063904c-2.7724294-2.585274-5.6093338-4.968311-8.5208937-7.145739zm174.2052769.204597h-22.854727v6.330046h22.854727zm-40.517511-3.677359c2.911559 2.042603 5.819726 4.223401 8.727892 6.535655l-2.908166 3.269512c-.139131-.134825-.417392-.340433-.83139-.613455-3.064916-2.528492-5.423468-4.418668-7.078004-5.670529l-.41565-.312092c-.066614-.049603-.131897-.097998-.19585-.145187zm436.035269-.201227c2.91156 2.177428 5.819727 4.422269 8.727893 6.737893l-3.115165 3.266142c-2.908167-2.585275-5.680596-4.900899-8.310502-6.943501zm-119.885682 6.12309h-27.425672v3.677359h27.425672zm-356.917194-19.398323 4.156947 1.634757c-2.08017 2.858295-4.363946 5.649178-6.858114 8.372649h11.011668v10.415252h-4.153554v-6.741264h-38.0233425v6.741264h-4.3639463v-10.415252h34.4907858l-3.118559-1.429148c.553129-.680868 1.31665-1.634756 2.28717-2.861666 2.215907-2.585275 3.739555-4.489682 4.570945-5.716592zm145.322806 12.72582h-9.348889c.135737 1.634757 0 3.131317-.413998 4.493052h9.762887zm-13.295444 0h-8.520894l-.62439 4.493052h8.727892c.278261-1.361735.417392-2.858295.417392-4.493052zm224.889832.342456h-27.425672v3.67736h27.425672zm-447.1361855-8.576909c1.662779 1.22691 4.0178169 3.134688 7.0651138 5.719962.692259.680868 1.2487809 1.156127 1.6627789 1.429148l-2.7011674 2.858295c-2.9081664-2.72347-5.8197263-5.173919-8.7278927-7.351347zm337.9486195-4.287443c1.94104 1.769581 4.710076 4.563835 8.310501 8.372649l-3.529163 2.858295c-1.387912-1.631385-3.464689-3.879597-6.237118-6.737892-.827996-.950519-1.452386-1.634757-1.866384-2.042603zm-164.160734 1.02029 2.911559 2.248211c-2.08017 2.450449-4.435208 5.035724-7.065113 7.759194l-2.908167-2.450449c1.245388-1.22691 2.908167-2.925708 4.984944-5.106507.831389-1.088714 1.523648-1.904407 2.076777-2.450449zm-27.218673 0c3.186427 2.996491 5.470203 5.446941 6.858114 7.351347l-3.118559 2.45045c-.413998-.542672-1.034995-1.22354-1.866384-2.039232-1.113044-1.496561-2.704561-3.336926-4.777944-5.514354zm-13.919836-1.021302c3.325558 2.588646 6.162463 4.836857 8.517501 6.741264l-2.904773 3.266142c-.281655-.269651-.766915-.74828-1.45578-1.429148-3.189821-2.858296-5.473597-4.830115-6.858115-5.9222zm436.245663.001012c.692259.546042 1.798516 1.429147 3.322164 2.656057 2.215908 1.769582 3.878687 3.131317 4.988337 4.081835l-3.118559 3.063904c-3.186427-2.99312-5.887595-5.308744-8.103502-6.943501zm-320.885793 5.170549h-8.5175v4.287443h8.5175zm-12.467449 0h-9.14189v4.287443h9.14189zm-175.867037-5.168864c.553128.680868 1.45578 1.769582 2.704561 3.266142 1.381124 1.769582 2.351644 3.063904 2.908166 3.879597l-4.156947 1.836994c-.83139-1.223539-2.148039-2.993121-3.946555-5.308745-.6956524-.950518-1.1809124-1.634756-1.4557799-2.042602zm14.130227-1.021301c.692259.815692 1.591517 2.110015 2.701168 3.879597 1.245387 1.631385 2.144645 2.929078 2.701167 3.879597l-4.363946 1.429147c-.413998-.542671-.97052-1.429147-1.662779-2.656057-1.384518-2.45045-2.490775-4.216661-3.322164-5.308745z"/></g></g></svg>