<?xml version="1.0" standalone="no"?><!DOCTYPE svg PUBLIC "-//W3C//DTD SVG 1.1//EN" "http://www.w3.org/Graphics/SVG/1.1/DTD/svg11.dtd"><svg t="1753673341259" class="icon" viewBox="0 0 1024 1024" version="1.1" xmlns="http://www.w3.org/2000/svg" p-id="4416" xmlns:xlink="http://www.w3.org/1999/xlink" width="200" height="200"><path d="M224 66.9h577.2c86.2 0 156 69.9 156 156v577.3c0 86.2-69.8 156-156 156H224c-86.2 0-156-69.9-156-156V222.9c-0.1-86.2 69.8-156 156-156z" fill="#FFFFFF" p-id="4417"></path><path d="M801.2 959.6H223.9c-87.9 0-159.4-71.5-159.4-159.4V222.9C64.5 135 136 63.5 223.9 63.5h577.3c87.9 0 159.4 71.5 159.4 159.4v577.2c0 88-71.5 159.5-159.4 159.5zM223.9 70.3c-84.2 0-152.6 68.5-152.6 152.6v577.2c0 84.2 68.5 152.6 152.6 152.6h577.3c84.2 0 152.6-68.5 152.6-152.6V222.9c0-84.2-68.5-152.6-152.6-152.6H223.9z" fill="#DBDCDC" p-id="4418"></path><path d="M247.1 319.1l57.4-85.7 24.4 30.8 34-56.2 53.5 100.3V200.5H188.1v151.2h228.3V319l-169.3 0.1z m-32.3-87.8c0-10.8 8.8-19.6 19.6-19.6s19.6 8.8 19.6 19.6-8.8 19.6-19.6 19.6c-10.9 0-19.6-8.8-19.6-19.6zM666.5 200.5h170.9v25.1H666.5zM666.5 248.1h170.9v25.1H666.5zM666.5 153h170.9v25H666.5zM444.4 200.5H638v25.1H444.4zM444.4 248.1H638v25.1H444.4zM444.4 153H638v25H444.4zM188.1 797.5H638v25.1H188.1zM188.1 845.1H638v25.1H188.1zM188.1 750H638v25H188.1zM666.5 797.5h170.9v25.1H666.5zM666.5 845.1h170.9v25.1H666.5zM666.5 750h170.9v25H666.5z" fill="#DBDCDC" p-id="4419"></path><path d="M202.8 153c1.5 0 2.9 0.1 4.1 0.4 1.2 0.3 2.3 0.7 3.2 1.3 0.9 0.6 1.6 1.4 2.1 2.4s0.7 2.3 0.7 3.7c0 1.6-0.4 2.9-1.1 4-0.7 1.1-1.8 1.9-3.2 2.6 2 0.6 3.4 1.5 4.4 3 1 1.4 1.5 3.1 1.5 5.1 0 1.6-0.3 3-0.9 4.1-0.6 1.2-1.5 2.1-2.5 2.9-1 0.7-2.3 1.3-3.6 1.6-1.3 0.4-2.7 0.5-4.2 0.5h-15.4V153h14.9z m-0.9 12.8c1.3 0 2.3-0.3 3.1-0.9 0.8-0.6 1.2-1.6 1.2-2.9 0-0.7-0.1-1.3-0.4-1.8-0.3-0.5-0.6-0.8-1.1-1.1-0.4-0.3-1-0.4-1.5-0.6-0.6-0.1-1.2-0.1-1.8-0.1h-6.5v7.4h7z m0.4 13.5c0.7 0 1.3-0.1 2-0.2 0.6-0.1 1.2-0.4 1.6-0.7 0.5-0.3 0.9-0.7 1.1-1.3 0.3-0.5 0.4-1.2 0.4-2.1 0-1.6-0.4-2.8-1.4-3.5-0.9-0.7-2.1-1-3.6-1h-7.6v8.7h7.5zM225.9 191c-1.2 0.8-2.9 1.2-5.1 1.2h-3.9V187c0.6 0.1 3.1 0 3.7 0 0.8-0.1 1.4-0.4 1.8-1 0.4-0.6 0.6-1.2 0.6-1.9 0-0.5-0.1-1-0.3-1.4l-8.1-21.6h6.7l5.2 15.7h0.1l5-15.7h6.5l-9.6 25.8c-0.4 2-1.4 3.3-2.6 4.1zM258.2 161.2l-2.8 4.2h-4.6v11.7c0 1.1 0.2 1.8 0.5 2.1 0.4 0.4 1.1 0.5 2.1 0.5h2v4.9h-3.7c-1 0-1.9-0.1-2.8-0.2-0.9-0.1-1.6-0.4-2.3-0.8-0.7-0.4-1.2-0.9-1.6-1.6-0.4-0.7-0.6-1.6-0.6-2.8v-13.9h-3.8v-4.2h3.8v-3.6l6.3-2.9v6.5h7.5zM298.2 153c2.1 0 4 0.3 5.7 1 1.8 0.6 3.3 1.6 4.6 2.9 1.3 1.3 2.3 2.9 3 4.9 0.7 2 1.1 4.3 1.1 6.9 0 2.3-0.3 4.4-0.9 6.4-0.6 2-1.5 3.7-2.7 5.1-1.2 1.4-2.7 2.5-4.5 3.4-1.8 0.8-3.9 1.2-6.3 1.2h-13.7V153h13.7z m-0.4 25.9c1 0 2-0.2 2.9-0.5 0.9-0.3 1.8-0.9 2.5-1.6 0.7-0.8 1.3-1.8 1.8-3 0.4-1.2 0.7-2.7 0.7-4.5 0-1.6-0.1-3-0.5-4.3-0.3-1.3-0.8-2.4-1.5-3.3-0.7-0.9-1.7-1.6-2.8-2.1-1.2-0.5-2.6-0.7-4.3-0.7h-5v20h6.2zM383.7 175.7c-0.6 1.9-1.9 4.3-4.8 4.3h-0.2c-4.9-0.1-5.3-6.5-5.3-6.5-0.1-0.6 0-1.7 0-1.7s0.4-6.4 5.3-6.5h0.2c3 0.1 4.3 2.5 4.8 4.3h6.2c-0.6-2.8-2.8-8.8-11-9.1h-0.3c-10.6 0.3-11.2 10.4-11.2 10.4s-0.2 2.1 0 3.3c0 0 0.6 10.1 11.2 10.4h0.3c8.2-0.2 10.4-6.3 11-9.1h-6.2zM412.2 174.2h3.2c0.2-1.2 0-3.2 0-3.2s-0.6-10.1-11.2-10.4h-0.3c-10.6 0.3-11.2 10.4-11.2 10.4s-0.2 2.1 0 3.3c0 0 0.6 10.1 11.2 10.4h0.3c7-0.2 9.7-4.7 10.6-7.7h-6.4c-0.7 1.5-2 2.9-4.3 2.9h-0.2c-3.9-0.1-4.9-4.1-5.2-5.8h13.5z m-8.4-8.9h0.2c3.3 0.1 4.5 3 5 4.9h-10.2c0.5-1.9 1.8-4.8 5-4.9zM277.8 174.2h3.2c0.2-1.2 0-3.2 0-3.2s-0.6-10.1-11.2-10.4h-0.3c-10.6 0.3-11.2 10.4-11.2 10.4s-0.2 2.1 0 3.3c0 0 0.6 10.1 11.2 10.4h0.3c7-0.2 9.7-4.7 10.6-7.7H274c-0.7 1.5-2 2.9-4.3 2.9h-0.2c-3.9-0.1-4.9-4.1-5.2-5.8h13.5z m-8.3-8.9h0.2c3.3 0.1 4.5 3 5 4.9h-10.2c0.5-1.9 1.7-4.8 5-4.9zM338.5 161.5h-6.8c-1.3-0.6-2.8-0.9-4.7-1h-0.3c-10.5 0.3-11.1 10.4-11.1 10.4s-0.2 2.1 0 3.3c0 0 0.6 10.1 11.1 10.4h0.3c2.5-0.1 4.4-0.7 5.9-1.6l5.6 1.6v-23.1zM327 180h-0.2c-4.8-0.1-5.2-6.5-5.2-6.5-0.1-0.6 0-1.7 0-1.7s0.4-6.4 5.2-6.5h0.2c4.8 0.1 5.2 6.5 5.2 6.5V173.5s-0.4 6.4-5.2 6.5zM363.8 167.7c-0.8-6.7-7.4-7.1-7.4-7.1-3.7-0.3-6.2 1.7-7.4 2.9l-6.7-1.9v23.2h6.3v-13.3c0-6.6 5.2-6 5.2-6 4 0 3.7 5.3 3.7 5.3v14h6.3v-14c0.1-1.5 0-3.1 0-3.1z" fill="#DBDCDC" p-id="4420"></path><path d="M64.6 256.3v543.9c0 4.7 0.3 9.3 0.7 13.9l895.3-50.7V222.9c0-4.7-0.2-9.3-0.6-13.9L64.6 256.3z" fill="#E62318" p-id="4421"></path><path d="M859.5 569.4V527l-134.3 7.6v-21.3l-64.7 3.6v21.4l-134.2 7.6v42.5l134.2-7.6v93.6l64.7-3.7v-93.6z" fill="#FFFFFF" p-id="4422"></path><path d="M526.2 491.1v42.4l46.1-2.6v-0.1l118.9-58.6 121.7 44.9v0.1l46.6-2.7V472l-31.2 1.8-80.2-29.6 106.3-52.4v-73.5l-64.7 3.7-148.9 8.4h0.1l-51.7-24.6-65.9 104.7 54.6 19.9 35.2-55.9 176.6-10v10.2l-98.5 48.5-76.5-28.2-25.9 39.4 45.5 16.8-77.4 38.1zM824.5 583.9l-64.7 3.7L807 666l64.7-3.6zM526.5 682.1l64.7-3.7 43.1-83.5-64.7 3.6zM372.7 586.9l51.1 100.5 71.7-3.7-51.1-100.5zM305.3 513.3L253 447.4l-71.4 4 52.3 65.9zM305.3 431L253 365.1l-71.4 3.9 52.3 66z" fill="#FFFFFF" p-id="4423"></path><path d="M367 575.2l119.6-6.8v-42.5l-79.4 4.6V343.7l-64.7 3.7v186.7l-189.1 10.8v42.5l131.5-7.5-58.3 76.7-71.5 4.1v42.5l120-7v-0.1z" fill="#FFFFFF" p-id="4424"></path></svg>